<?xml version="1.0" standalone="no"?>
<!DOCTYPE svg PUBLIC "-//W3C//DTD SVG 20010904//EN"
 "http://www.w3.org/TR/2001/REC-SVG-20010904/DTD/svg10.dtd">
<svg version="1.0" xmlns="http://www.w3.org/2000/svg"
 width="468pt" height="169pt" viewBox="0 0 468 169"
 preserveAspectRatio="xMidYMid meet">
<metadata>
Created by POTRACE VERSION, written by Peter Selinger 2001-2007
</metadata>
<g transform="translate(0,169) scale(0.016883,-0.016883)"
fill="#000000" stroke="none">
<path d="M7790 9596 c-36 -12 -78 -30 -95 -38 -16 -9 -65 -55 -109 -103 -43
-47 -110 -107 -150 -134 -39 -26 -98 -62 -131 -81 -33 -18 -80 -48 -105 -65
-25 -18 -78 -49 -117 -68 -40 -20 -87 -47 -105 -60 -18 -14 -62 -39 -98 -57
-36 -18 -85 -47 -110 -65 -25 -17 -74 -49 -110 -69 -35 -21 -89 -60 -119 -88
-37 -34 -102 -73 -204 -124 -82 -41 -172 -91 -201 -109 -28 -19 -79 -46 -114
-60 -34 -14 -108 -57 -165 -95 -57 -39 -142 -86 -190 -105 -48 -19 -117 -55
-154 -80 -38 -24 -94 -62 -125 -84 -32 -23 -90 -57 -130 -77 -40 -20 -115 -61
-168 -91 -52 -31 -119 -74 -150 -98 -30 -24 -95 -66 -143 -95 -48 -28 -117
-62 -153 -76 -36 -13 -84 -34 -107 -46 -23 -11 -78 -46 -122 -78 -44 -31 -111
-74 -150 -95 -38 -21 -88 -52 -110 -70 -22 -17 -89 -69 -148 -114 -73 -56
-152 -104 -245 -149 -75 -37 -162 -86 -192 -109 -30 -23 -86 -55 -123 -72 -37
-17 -96 -50 -130 -74 -34 -24 -116 -73 -182 -109 -66 -36 -142 -74 -168 -83
-27 -10 -86 -46 -131 -79 -46 -34 -106 -80 -135 -103 -36 -29 -75 -49 -124
-64 -40 -12 -106 -38 -148 -59 -41 -20 -109 -60 -150 -87 -41 -28 -96 -62
-124 -76 -27 -14 -72 -31 -100 -40 -27 -8 -66 -21 -85 -29 -19 -8 -71 -46
-115 -83 -49 -41 -112 -82 -163 -106 -46 -21 -109 -58 -140 -82 -31 -24 -77
-57 -102 -72 -25 -16 -65 -45 -90 -66 -25 -20 -73 -51 -107 -68 -34 -17 -96
-53 -137 -80 -42 -27 -106 -61 -143 -75 -38 -15 -78 -32 -90 -39 -12 -7 -61
-55 -108 -107 -47 -52 -107 -124 -133 -160 -26 -36 -98 -117 -159 -180 -62
-63 -124 -131 -139 -150 -14 -19 -36 -55 -49 -80 -12 -25 -37 -99 -55 -165
-27 -103 -30 -125 -21 -157 8 -24 32 -55 74 -93 34 -31 84 -68 111 -82 27 -14
101 -36 165 -50 64 -13 129 -22 145 -19 15 3 56 27 90 52 33 26 81 56 105 66
24 11 85 29 135 39 57 12 157 21 271 25 99 3 205 12 235 20 31 7 121 21 200
30 123 14 168 14 295 4 83 -6 215 -22 295 -36 80 -13 179 -34 221 -47 42 -13
104 -41 137 -61 40 -24 86 -42 134 -51 40 -8 105 -24 143 -35 39 -11 96 -26
127 -35 33 -9 84 -34 120 -60 35 -24 83 -57 108 -72 41 -26 53 -28 135 -27 55
1 109 9 140 19 28 9 61 27 74 39 13 11 27 31 32 43 5 13 4 35 -2 53 -6 17 -24
37 -40 45 -15 8 -61 22 -101 30 -40 9 -88 20 -107 26 -18 6 -62 36 -98 66 -40
34 -105 73 -176 107 -98 46 -123 64 -197 136 -61 60 -104 92 -155 116 -53 26
-97 37 -180 49 -60 8 -128 20 -149 26 -25 7 -158 11 -360 12 -277 2 -332 0
-401 -16 -44 -10 -132 -22 -195 -27 -63 -5 -131 -13 -150 -19 -19 -6 -54 -11
-77 -11 -32 0 -46 5 -57 22 -9 12 -16 36 -16 52 0 23 15 45 74 103 41 41 101
113 134 161 33 48 105 132 159 187 54 56 123 117 154 138 32 20 88 71 125 113
38 42 110 110 161 151 53 42 112 102 142 141 45 61 61 74 158 128 59 32 142
71 185 85 42 14 87 33 100 42 13 10 60 45 105 80 45 34 139 106 210 159 101
77 136 110 167 158 30 48 59 75 130 124 50 35 114 76 141 91 28 16 93 59 145
96 52 37 113 76 135 87 23 11 58 24 79 27 20 4 59 22 86 41 26 18 90 53 142
78 51 24 128 69 170 100 42 31 150 92 241 136 90 43 192 100 226 125 35 26 95
67 133 92 39 24 98 67 130 94 40 33 76 53 116 64 31 9 68 21 82 26 14 6 57 35
96 65 53 41 108 69 218 114 81 32 167 70 190 84 23 14 65 45 92 69 27 24 76
58 109 75 33 16 107 69 165 116 58 48 155 117 215 154 61 36 146 86 190 110
44 23 127 66 184 94 58 27 123 57 145 64 22 8 62 32 90 53 28 22 74 46 102 54
28 8 65 22 82 31 18 9 54 46 82 83 28 36 58 72 68 78 9 7 44 21 77 31 47 15
75 33 133 88 49 45 99 80 146 102 39 18 96 49 126 68 30 20 72 43 95 51 22 8
75 26 118 41 55 19 92 40 125 70 26 23 60 64 74 91 14 26 29 64 32 83 4 21 1
45 -6 60 -7 14 -29 33 -48 42 -19 10 -55 18 -80 18 -25 0 -74 -11 -110 -24z
m-6561 -4272 c14 -17 21 -41 21 -69 0 -24 -10 -60 -23 -86 -13 -24 -49 -90
-80 -147 -31 -56 -85 -146 -118 -200 -34 -53 -75 -111 -92 -129 -16 -17 -53
-42 -81 -54 -33 -15 -72 -23 -111 -23 -45 -1 -72 5 -109 24 -26 13 -59 37 -72
53 -16 19 -24 41 -24 66 0 25 9 52 26 76 14 21 74 90 132 153 75 80 152 148
258 228 83 62 161 118 175 123 13 5 36 10 51 10 17 1 34 -8 47 -25z"/>
<path d="M13555 8317 c-16 -7 -64 -30 -105 -51 -41 -21 -95 -52 -120 -69 -25
-17 -68 -50 -96 -74 -28 -23 -67 -49 -87 -58 -20 -8 -50 -15 -67 -15 -17 0
-51 -5 -76 -11 -36 -9 -55 -24 -101 -76 -32 -37 -77 -74 -102 -87 -25 -13 -89
-38 -142 -55 -53 -17 -117 -45 -142 -61 -25 -16 -89 -64 -141 -106 -56 -45
-109 -97 -127 -126 -17 -27 -52 -65 -78 -86 -25 -20 -76 -67 -113 -104 -36
-37 -93 -85 -126 -106 -33 -21 -114 -67 -180 -101 -65 -34 -143 -82 -173 -107
-29 -26 -85 -68 -124 -94 -39 -27 -84 -64 -101 -83 -16 -19 -41 -50 -56 -70
-15 -19 -99 -89 -187 -155 -87 -66 -192 -139 -233 -163 -40 -23 -93 -59 -117
-78 -24 -20 -66 -52 -93 -72 -27 -20 -70 -63 -96 -95 -26 -32 -79 -83 -117
-112 -39 -30 -144 -127 -235 -216 -91 -88 -218 -207 -284 -263 -116 -100 -120
-103 -220 -133 -55 -17 -120 -38 -143 -46 -29 -11 -61 -37 -108 -90 -37 -41
-86 -86 -110 -99 -23 -14 -75 -36 -116 -50 -47 -16 -86 -38 -109 -59 -19 -19
-99 -71 -178 -116 -78 -44 -166 -89 -195 -99 -28 -10 -89 -37 -134 -60 -50
-25 -96 -41 -118 -41 -22 0 -43 8 -55 20 -13 13 -20 33 -20 56 0 28 8 43 33
68 18 17 55 47 82 66 31 22 63 59 88 100 22 36 66 94 98 129 32 35 73 89 90
120 18 31 63 102 100 158 38 56 85 114 106 130 20 15 54 55 75 87 22 34 38 71
38 88 0 17 -10 39 -25 53 -15 15 -36 25 -54 25 -16 0 -62 -18 -103 -39 -40
-21 -93 -44 -116 -50 -23 -7 -63 -21 -88 -31 -25 -11 -71 -44 -102 -74 -37
-35 -87 -68 -143 -95 -64 -30 -96 -52 -123 -86 -21 -25 -67 -63 -104 -84 -37
-22 -103 -76 -147 -121 -45 -46 -111 -100 -150 -123 -51 -31 -122 -94 -265
-238 -166 -167 -202 -199 -245 -214 -27 -10 -69 -26 -91 -37 -23 -10 -66 -40
-96 -66 -29 -26 -81 -64 -115 -86 -36 -23 -86 -69 -122 -112 -39 -47 -90 -92
-139 -125 -42 -29 -109 -82 -147 -118 -39 -36 -116 -105 -172 -154 -55 -48
-122 -112 -148 -143 -26 -30 -72 -73 -101 -95 -30 -22 -72 -65 -95 -97 -23
-31 -103 -118 -178 -192 -75 -74 -156 -159 -180 -188 -24 -30 -85 -84 -135
-121 -50 -37 -110 -88 -132 -113 -23 -24 -49 -57 -59 -72 -10 -15 -38 -41 -62
-57 -24 -17 -52 -40 -63 -52 -12 -12 -33 -44 -49 -72 -16 -27 -49 -69 -74 -93
-32 -29 -55 -42 -75 -42 -15 0 -33 5 -40 12 -7 7 -12 23 -12 38 0 14 13 48 29
75 16 28 71 100 123 160 52 61 105 118 119 126 13 9 111 102 217 206 107 104
217 220 246 258 36 49 75 86 129 123 56 39 99 80 157 153 45 54 97 111 117
126 20 16 72 59 117 97 45 38 115 101 156 140 42 39 115 106 163 149 57 52
116 118 174 200 48 67 100 140 114 162 14 22 35 47 45 57 10 9 97 55 192 103
148 74 178 93 210 133 20 26 66 76 102 112 37 37 114 97 180 138 63 40 142 94
176 120 34 26 83 63 110 82 26 19 66 59 89 88 24 32 71 73 120 105 58 38 89
67 119 110 28 42 40 73 44 107 4 41 1 49 -19 64 -13 9 -34 16 -47 16 -13 0
-42 -11 -65 -24 -23 -13 -60 -29 -82 -36 -22 -7 -54 -23 -72 -36 -18 -14 -53
-52 -80 -87 -26 -34 -83 -102 -127 -150 -56 -61 -108 -106 -171 -146 -49 -32
-128 -77 -173 -101 -65 -34 -95 -56 -133 -102 -27 -33 -72 -92 -99 -133 -27
-40 -66 -86 -87 -102 -21 -16 -63 -45 -93 -65 -31 -19 -74 -59 -95 -87 -22
-28 -56 -62 -76 -75 -20 -14 -62 -32 -94 -41 -36 -11 -73 -31 -98 -54 -22 -20
-90 -92 -150 -161 -60 -69 -134 -161 -165 -205 -31 -44 -79 -102 -107 -130
-28 -27 -89 -70 -135 -95 -58 -30 -106 -65 -150 -110 -36 -37 -97 -87 -136
-113 -60 -40 -80 -61 -124 -130 -29 -45 -68 -105 -86 -134 -21 -32 -62 -74
-111 -110 -42 -32 -117 -104 -167 -161 -50 -57 -116 -119 -146 -139 -30 -20
-81 -59 -114 -87 -45 -39 -66 -66 -91 -122 -18 -40 -51 -92 -72 -116 -22 -24
-57 -65 -79 -92 -21 -27 -64 -65 -94 -84 -30 -19 -95 -74 -144 -121 -48 -47
-114 -120 -146 -161 -32 -41 -70 -86 -85 -100 -14 -14 -43 -52 -62 -85 -20
-33 -59 -85 -88 -115 -28 -30 -67 -75 -85 -100 -19 -25 -63 -76 -97 -114 -35
-37 -84 -98 -110 -135 -26 -36 -73 -97 -105 -134 -32 -38 -67 -86 -78 -107
-11 -22 -29 -63 -41 -92 -11 -29 -38 -75 -59 -103 -21 -27 -48 -70 -60 -94
-12 -24 -40 -67 -62 -95 -22 -27 -60 -90 -84 -138 -24 -48 -44 -99 -44 -113 0
-14 9 -34 20 -45 12 -12 33 -20 55 -20 20 0 61 11 93 24 31 13 77 29 102 36
25 6 64 23 88 36 33 19 53 44 89 107 30 51 76 111 123 158 54 54 87 78 116 87
23 7 63 12 90 12 29 0 97 -16 169 -39 66 -22 147 -51 180 -65 33 -13 98 -30
145 -36 46 -6 111 -23 144 -37 32 -13 93 -31 135 -39 61 -12 139 -14 386 -10
171 3 339 10 375 17 48 8 118 8 265 -1 110 -6 232 -19 270 -28 43 -10 114 -16
185 -16 97 0 128 4 199 27 55 18 106 27 145 26 34 0 93 -9 131 -20 39 -10 93
-24 120 -30 47 -11 53 -10 111 19 33 17 76 33 95 37 23 4 72 -4 151 -24 101
-27 135 -31 244 -31 99 0 144 5 202 21 65 18 95 20 241 17 156 -4 169 -6 221
-31 51 -25 65 -27 180 -27 83 0 150 -6 198 -17 61 -14 84 -15 140 -5 41 7 102
29 160 58 81 40 99 46 139 41 31 -3 54 -13 74 -33 17 -16 40 -46 51 -66 12
-20 34 -42 50 -49 24 -10 43 -8 113 11 76 20 98 22 201 16 92 -5 133 -13 197
-36 44 -17 95 -30 112 -30 18 0 58 9 91 21 41 15 99 24 189 29 95 6 168 17
271 43 88 22 166 49 207 71 37 19 84 38 104 42 22 4 74 0 127 -9 50 -9 114
-19 141 -23 28 -4 65 -13 84 -20 18 -8 40 -14 47 -14 8 0 31 11 52 24 20 13
51 27 67 30 17 4 60 0 95 -8 50 -12 80 -13 134 -5 39 5 121 16 181 25 61 8
146 20 190 25 44 5 103 14 131 20 l52 12 138 -65 c86 -40 163 -69 202 -76 35
-6 89 -23 119 -37 30 -14 67 -25 82 -25 14 0 45 7 67 15 28 9 52 11 71 6 17
-5 51 -25 77 -45 26 -19 64 -40 84 -45 20 -5 84 -22 142 -36 58 -15 117 -29
132 -32 19 -4 44 5 87 32 33 21 80 41 103 46 24 4 68 8 98 9 30 0 100 -11 155
-25 55 -14 117 -25 137 -25 23 0 64 15 115 41 70 36 89 41 178 48 84 7 109 13
160 40 41 23 69 31 90 28 17 -2 80 -14 140 -27 61 -12 130 -33 155 -45 25 -13
55 -37 68 -55 13 -17 38 -40 55 -51 18 -10 47 -19 65 -19 18 0 46 7 61 15 16
8 45 36 65 63 20 27 50 55 66 62 28 11 39 10 100 -15 54 -22 78 -26 109 -21
23 3 66 17 97 31 31 14 67 25 79 25 13 0 32 -8 44 -17 11 -10 36 -57 56 -106
31 -77 34 -94 28 -147 -4 -43 -2 -64 7 -76 8 -8 31 -24 53 -36 32 -16 56 -19
126 -18 47 2 149 -2 226 -8 77 -6 153 -16 169 -22 16 -6 56 -27 89 -48 l61
-37 126 0 127 0 69 -47 c47 -33 89 -52 134 -63 40 -9 114 -15 191 -15 109 0
133 3 185 24 32 13 83 29 112 36 36 8 62 22 80 42 15 16 39 43 54 59 20 22 35
29 65 29 21 0 67 -9 103 -21 60 -18 68 -19 111 -4 26 8 89 35 140 60 51 25
103 45 115 45 13 0 58 19 101 42 l78 42 150 7 c130 6 162 11 243 38 51 17 136
38 190 47 53 8 130 22 171 30 40 8 98 14 129 14 31 0 89 -9 129 -21 70 -19 82
-20 246 -8 95 7 264 12 377 12 113 0 360 -6 550 -13 260 -9 381 -9 490 -1 80
6 209 11 287 11 93 0 165 5 208 15 62 15 73 15 163 -4 54 -11 122 -22 152 -26
32 -4 105 0 173 9 65 9 160 16 211 16 51 0 117 4 146 10 39 7 82 6 169 -6 64
-9 134 -18 157 -21 26 -3 76 4 142 21 80 21 124 26 214 26 90 0 122 -4 156
-20 31 -14 47 -29 57 -54 8 -20 15 -53 15 -74 0 -21 12 -62 27 -93 15 -31 59
-87 102 -131 43 -43 88 -80 104 -84 20 -4 33 -1 47 11 10 9 22 30 25 46 4 15
-1 65 -11 111 -14 69 -15 90 -4 128 7 27 27 59 49 81 25 26 55 43 96 54 49 15
75 16 150 9 49 -5 158 -7 240 -6 106 2 175 9 233 22 50 12 119 20 170 20 69 0
102 -6 157 -27 39 -14 91 -28 118 -30 42 -4 55 0 115 36 49 30 94 47 159 61
50 11 104 25 120 31 15 7 71 14 123 18 l95 6 -2 30 c0 17 -4 48 -8 70 -6 33
-3 45 15 67 12 15 39 32 61 38 31 8 60 7 128 -5 83 -16 95 -16 172 0 72 15
101 16 204 7 66 -6 190 -14 275 -17 91 -4 192 -2 245 5 63 7 173 8 365 1 l275
-9 70 25 c39 13 100 33 137 43 36 9 75 24 87 32 11 8 52 50 90 94 37 44 78 98
89 120 11 22 26 68 33 102 12 57 11 68 -11 140 -12 42 -33 113 -45 157 -12 44
-27 91 -35 105 -7 14 -28 45 -47 70 -19 25 -47 64 -64 88 -18 26 -37 42 -49
42 -12 0 -44 -12 -73 -27 -37 -19 -68 -27 -107 -27 -36 -1 -73 7 -108 22 -29
12 -78 27 -110 33 -31 5 -101 24 -155 41 l-98 31 -77 -15 c-43 -9 -113 -32
-156 -52 -44 -20 -94 -36 -113 -36 -19 0 -46 6 -61 14 -15 8 -56 38 -92 66
-36 29 -112 76 -170 103 -87 41 -117 51 -175 55 -44 3 -100 -2 -148 -12 -61
-12 -88 -13 -134 -5 -34 6 -127 9 -223 6 -135 -4 -177 -8 -230 -26 -46 -16
-81 -21 -122 -19 -42 3 -65 11 -92 31 -19 15 -50 55 -68 89 -19 35 -45 69 -60
78 -25 13 -29 13 -55 -6 -18 -14 -36 -43 -51 -85 -12 -35 -33 -74 -46 -85 -23
-20 -35 -22 -193 -22 -159 0 -172 2 -238 28 -38 15 -99 32 -134 38 -35 6 -95
28 -134 48 -55 28 -78 35 -107 31 -20 -2 -59 -21 -87 -41 -31 -22 -71 -40
-104 -47 -30 -6 -109 -10 -176 -10 -115 1 -125 -1 -185 -29 -40 -19 -95 -34
-147 -41 -62 -8 -102 -8 -155 0 -39 6 -131 15 -205 20 -84 6 -143 6 -158 0
-14 -5 -37 -18 -52 -28 -14 -10 -48 -25 -76 -34 -27 -8 -109 -29 -181 -46 -72
-17 -151 -31 -175 -31 -24 0 -77 7 -117 17 -71 16 -75 16 -172 -6 -55 -12
-173 -31 -262 -42 -90 -11 -210 -30 -268 -43 -58 -13 -145 -27 -195 -30 -49
-4 -133 -14 -185 -22 -52 -8 -147 -22 -210 -32 -63 -9 -182 -17 -265 -18 -100
-1 -187 -8 -262 -22 -89 -16 -130 -29 -203 -67 -60 -30 -119 -51 -169 -61 -47
-9 -94 -26 -124 -44 -27 -17 -61 -30 -76 -30 -15 0 -42 11 -61 25 -19 14 -45
25 -58 25 -13 0 -60 -9 -105 -21 -45 -11 -108 -32 -140 -45 -38 -16 -69 -23
-85 -19 -13 3 -49 29 -79 57 l-54 52 -102 -13 c-56 -7 -133 -21 -170 -33 -64
-19 -70 -19 -117 -4 -27 9 -60 16 -74 16 -15 0 -33 -10 -45 -26 -12 -15 -21
-32 -21 -39 0 -6 -11 -22 -25 -35 -22 -20 -27 -21 -54 -11 -16 7 -40 24 -53
38 -12 14 -33 29 -45 34 -13 5 -33 5 -46 0 -13 -5 -38 -32 -56 -59 -18 -29
-56 -67 -91 -91 -33 -23 -75 -45 -93 -48 -23 -3 -39 1 -57 15 -24 19 -25 25
-22 113 2 75 -1 96 -14 111 -13 13 -32 18 -76 18 -32 0 -127 -14 -211 -30 -83
-17 -183 -39 -222 -50 -38 -10 -89 -21 -111 -25 -23 -3 -72 -24 -110 -46 -37
-22 -97 -49 -133 -61 -37 -11 -89 -33 -117 -49 -30 -17 -66 -29 -87 -29 -19 0
-59 11 -89 25 -47 21 -69 25 -164 26 -60 0 -125 1 -145 2 -22 1 -64 -11 -105
-30 -49 -22 -99 -35 -174 -45 -66 -8 -174 -12 -289 -10 -148 3 -194 7 -239 23
-30 10 -69 19 -85 19 -17 0 -75 -12 -129 -27 -99 -26 -100 -26 -231 -13 -73 7
-148 14 -167 14 -20 0 -66 -14 -105 -33 -50 -24 -90 -35 -138 -39 l-68 -5 -48
52 c-26 28 -53 51 -60 51 -7 0 -31 -16 -54 -35 -22 -19 -59 -41 -81 -47 -23
-7 -70 -12 -106 -11 -36 1 -148 3 -250 5 -114 3 -198 10 -218 17 -25 10 -50
10 -114 2 -44 -6 -118 -11 -162 -11 -45 0 -106 7 -136 15 -30 8 -71 15 -90 15
-24 0 -61 -15 -120 -50 -47 -28 -101 -55 -120 -60 -19 -5 -66 -10 -105 -10
-38 0 -143 5 -232 12 l-162 12 -84 -32 c-46 -18 -101 -32 -122 -32 -20 0 -75
11 -120 25 -76 23 -88 31 -126 76 -41 49 -44 51 -83 44 -23 -3 -140 -9 -261
-13 -122 -5 -231 -13 -245 -19 -14 -6 -52 -27 -84 -47 -33 -20 -69 -36 -81
-36 -11 0 -36 9 -55 20 -19 11 -75 41 -125 66 -86 44 -93 46 -190 50 -55 2
-129 6 -165 9 -36 3 -106 13 -157 22 -88 15 -94 15 -170 -5 -43 -11 -123 -26
-178 -31 -55 -6 -138 -19 -184 -28 -71 -14 -96 -15 -153 -5 -38 7 -96 12 -131
12 -36 0 -89 -9 -127 -22 -41 -13 -92 -21 -140 -22 -57 0 -89 5 -133 23 -55
22 -67 24 -200 18 -102 -4 -163 -12 -217 -28 -64 -18 -90 -21 -175 -16 -65 4
-127 15 -178 32 -43 14 -92 25 -110 25 -18 0 -101 -7 -185 -17 -130 -14 -168
-14 -245 -4 -79 10 -100 10 -150 -3 -39 -11 -103 -16 -194 -16 -75 0 -164 5
-198 12 -62 11 -64 11 -138 -24 -41 -20 -88 -39 -105 -42 -18 -4 -66 1 -118
13 -49 11 -136 25 -194 31 -58 5 -145 14 -195 19 -49 6 -166 15 -260 21 -93 6
-188 15 -210 20 -22 5 -67 10 -99 10 -33 0 -94 -10 -135 -21 -65 -18 -91 -20
-178 -15 -87 6 -111 4 -168 -13 -37 -12 -87 -21 -110 -21 -31 0 -64 11 -112
36 -37 20 -99 48 -138 61 -38 13 -108 33 -155 44 -50 12 -104 32 -132 50 -36
23 -66 33 -125 40 -43 6 -93 16 -111 25 -21 9 -38 27 -47 48 -10 24 -12 43 -5
65 5 17 24 51 42 74 18 23 62 74 99 112 36 39 82 102 103 142 21 40 53 83 70
97 19 14 46 52 64 89 27 57 39 71 99 110 37 24 106 79 153 123 47 44 107 93
133 109 28 18 70 59 100 100 29 39 73 104 98 145 25 41 85 125 133 187 48 62
113 136 145 166 32 29 83 68 114 85 30 17 65 46 78 64 13 18 78 86 144 151 66
65 143 136 170 156 28 21 76 74 108 117 32 43 72 101 90 129 19 30 57 67 97
94 35 25 96 77 135 116 39 38 92 96 119 128 32 39 67 67 106 87 33 17 68 42
80 57 11 16 32 53 47 83 25 48 36 60 98 93 39 21 93 53 120 71 28 18 88 47
135 65 54 20 119 56 180 99 52 37 138 109 191 160 53 51 112 117 130 147 20
33 45 61 65 70 23 11 39 12 57 6 14 -5 32 -20 41 -33 9 -12 16 -37 16 -56 0
-18 -7 -49 -15 -69 -8 -20 -41 -68 -72 -107 -31 -39 -73 -89 -94 -111 -20 -22
-60 -71 -89 -110 -29 -38 -63 -92 -76 -120 -13 -27 -24 -62 -24 -77 0 -15 5
-39 12 -53 7 -15 25 -33 40 -41 16 -8 64 -17 107 -21 70 -5 90 -2 187 27 60
18 136 45 169 60 33 16 89 54 125 85 53 47 111 80 310 177 134 66 271 139 305
161 33 23 78 58 100 78 22 20 68 53 102 73 42 25 73 52 94 84 18 26 44 60 58
76 15 16 112 71 236 131 152 75 226 118 269 155 32 28 80 62 106 75 25 13 74
53 108 89 34 37 79 90 101 119 21 28 52 64 67 78 16 15 49 39 74 54 25 15 90
71 145 125 86 84 113 103 195 142 53 24 113 60 133 78 21 18 56 59 77 90 21
30 68 84 104 118 37 34 90 74 119 88 29 15 82 48 118 75 37 27 101 87 144 134
62 69 92 93 157 127 63 32 88 52 112 87 17 25 42 56 56 69 14 13 54 42 89 64
35 21 91 46 125 54 33 8 73 20 89 26 15 6 49 40 77 78 27 38 64 80 83 94 19
15 75 43 123 62 49 20 119 52 156 71 46 24 85 55 122 97 31 35 72 70 95 81 33
14 43 16 56 5 8 -7 15 -22 15 -34 0 -12 -16 -49 -35 -81 -20 -32 -53 -77 -73
-99 -21 -23 -56 -68 -79 -101 -23 -33 -58 -76 -80 -96 -21 -20 -83 -66 -138
-102 -56 -37 -121 -75 -146 -86 -25 -11 -77 -43 -115 -72 -38 -28 -89 -61
-114 -74 -25 -13 -82 -52 -127 -86 -45 -35 -100 -87 -123 -116 -24 -30 -67
-68 -103 -89 -34 -21 -81 -52 -104 -71 -22 -18 -57 -50 -76 -70 -18 -21 -56
-62 -83 -92 -27 -29 -94 -83 -148 -119 -55 -36 -131 -82 -168 -101 -37 -20
-106 -71 -153 -114 -46 -43 -126 -133 -177 -200 -51 -67 -101 -134 -110 -148
-9 -14 -30 -64 -47 -112 -16 -47 -41 -108 -55 -135 -14 -27 -57 -87 -95 -133
-45 -53 -77 -101 -87 -132 -11 -34 -15 -68 -11 -115 3 -37 12 -103 20 -148 11
-62 28 -104 73 -188 37 -69 80 -131 119 -172 54 -58 64 -64 100 -64 22 0 54 9
72 20 18 10 41 37 53 59 11 22 20 53 20 69 0 16 -9 41 -21 56 -11 14 -44 42
-74 61 -36 25 -60 50 -74 79 -14 28 -21 62 -21 102 0 33 7 109 15 170 8 60 20
127 26 149 6 22 36 92 66 155 31 63 66 138 78 167 13 28 41 71 62 95 22 24 52
61 68 83 16 22 73 86 127 143 54 56 98 106 98 111 0 4 28 28 63 51 34 24 89
67 122 95 33 28 86 67 118 86 42 25 77 59 132 129 41 52 96 122 123 155 35 44
64 68 108 90 34 17 94 59 135 94 41 36 93 86 116 111 24 27 72 63 112 84 39
20 84 48 101 62 16 14 57 39 91 55 33 16 116 69 183 118 81 58 178 142 281
244 87 86 169 160 184 166 14 5 58 19 97 31 61 17 84 31 155 93 46 40 113 95
149 124 36 28 89 76 118 106 28 31 57 68 62 82 6 15 10 42 10 61 0 23 -8 43
-24 59 -13 13 -41 28 -62 34 -22 6 -59 11 -84 10 -25 0 -58 -6 -75 -12z"/>
<path d="M12850 6294 c-36 -14 -113 -41 -171 -60 -99 -32 -112 -39 -190 -107
-46 -41 -103 -94 -126 -119 -23 -25 -61 -77 -86 -114 -24 -38 -63 -99 -86
-136 -23 -36 -46 -82 -52 -101 -5 -19 -10 -80 -12 -135 -2 -88 0 -104 19 -129
12 -15 45 -41 75 -56 31 -16 79 -30 109 -33 39 -4 79 0 134 15 44 12 89 21
100 21 12 0 35 -9 53 -19 17 -11 47 -44 66 -73 19 -30 54 -71 78 -92 24 -21
63 -49 87 -63 34 -20 56 -26 102 -25 32 0 73 8 89 17 18 9 40 34 52 58 12 23
31 52 42 65 14 15 32 22 59 22 23 0 57 -10 81 -24 32 -18 62 -25 127 -29 47
-2 117 -14 155 -26 39 -11 113 -32 165 -47 52 -15 113 -31 136 -37 31 -7 48
-6 69 4 16 8 37 25 47 39 10 14 21 48 24 76 6 44 3 54 -17 76 -16 18 -46 31
-92 42 -40 10 -152 58 -270 115 -111 54 -226 104 -255 111 -28 7 -67 22 -85
34 -17 12 -39 36 -48 53 -12 24 -18 79 -23 227 l-7 195 -49 103 c-26 57 -61
115 -77 130 -15 15 -41 32 -56 37 -16 6 -45 11 -65 10 -20 0 -66 -11 -102 -25z
m26 -229 c12 -8 27 -27 33 -43 10 -24 9 -61 -3 -186 -9 -91 -22 -169 -31 -186
-10 -20 -28 -33 -55 -41 -32 -10 -55 -9 -122 5 -46 9 -109 16 -141 16 -32 0
-71 7 -86 15 -16 8 -34 28 -41 45 -8 19 -10 46 -6 73 4 23 21 67 38 97 17 30
46 77 65 103 19 26 49 55 67 64 17 9 58 25 91 34 33 10 85 18 115 18 34 1 64
-5 76 -14z"/>
<path d="M15552 6199 c-21 -6 -64 -43 -125 -105 -50 -53 -122 -116 -159 -140
-36 -24 -80 -60 -98 -80 -17 -20 -45 -65 -62 -102 -18 -38 -57 -93 -90 -129
-32 -35 -78 -93 -102 -130 -24 -38 -65 -108 -91 -158 -47 -89 -47 -90 -43
-171 3 -66 11 -94 39 -155 20 -41 41 -100 48 -133 11 -47 21 -67 58 -103 24
-25 67 -55 96 -67 29 -13 100 -40 158 -60 80 -27 122 -36 171 -36 58 0 75 -5
154 -46 l89 -45 125 6 c113 6 130 5 182 -15 45 -17 69 -34 110 -81 28 -33 75
-73 103 -89 28 -16 87 -59 131 -95 43 -37 102 -79 129 -94 28 -15 66 -34 85
-41 19 -8 58 -29 86 -47 28 -19 85 -47 126 -62 41 -15 96 -43 123 -61 26 -18
68 -39 93 -46 25 -8 59 -14 76 -14 18 0 65 -16 106 -36 41 -19 97 -38 125 -41
27 -3 62 -12 77 -20 15 -7 32 -22 38 -32 5 -11 10 -36 10 -55 0 -25 -9 -45
-30 -70 -17 -19 -45 -39 -63 -45 -18 -5 -66 -12 -107 -16 -41 -3 -106 -13
-145 -22 -57 -13 -81 -14 -131 -4 -34 6 -101 11 -150 11 -49 0 -155 -5 -235
-10 -128 -8 -154 -13 -218 -40 -73 -31 -73 -31 -200 -24 -108 6 -136 4 -181
-11 -46 -15 -75 -17 -214 -11 -143 6 -171 5 -256 -14 -74 -16 -111 -20 -170
-14 -61 5 -83 3 -108 -10 -18 -9 -34 -27 -38 -41 -3 -14 -3 -42 1 -63 3 -20
13 -47 21 -59 8 -14 25 -23 38 -23 14 0 45 9 70 20 25 10 79 26 119 34 41 9
172 25 291 36 120 11 222 23 228 26 5 3 52 0 104 -7 85 -11 99 -11 156 6 54
17 97 19 293 20 l230 0 71 32 71 32 248 -4 c136 -2 278 -9 316 -16 53 -9 87
-9 151 -1 46 7 130 12 188 12 78 0 123 5 175 21 57 17 110 23 280 28 185 7
217 10 269 31 33 12 74 37 92 54 19 17 49 58 69 90 22 37 35 73 35 94 0 27 -8
42 -35 67 -19 18 -56 40 -82 49 -27 9 -95 23 -153 31 -58 9 -140 27 -183 41
-67 21 -90 23 -156 18 -65 -6 -85 -3 -123 14 -25 11 -63 36 -85 56 -22 19 -70
50 -107 67 -50 23 -91 34 -154 40 -48 5 -100 12 -117 15 -16 4 -75 29 -130 56
-89 43 -112 50 -200 59 -55 6 -113 16 -129 22 -16 6 -54 32 -84 59 -30 26 -61
48 -68 48 -6 0 -42 9 -78 20 -45 14 -79 33 -106 59 -34 32 -40 44 -40 78 0 28
6 46 23 61 12 11 34 25 48 30 14 6 61 15 105 22 43 6 117 27 164 45 47 18 113
43 147 54 34 12 88 34 120 50 32 16 99 45 149 65 53 22 128 42 181 50 78 12
106 22 189 67 63 34 119 75 154 110 31 31 74 65 95 76 22 11 64 28 94 38 29
10 71 33 93 53 21 19 51 56 65 81 15 25 47 73 72 106 24 33 64 81 88 107 24
26 43 56 43 67 0 11 -9 29 -21 40 -12 11 -43 22 -77 26 -31 3 -93 18 -137 32
-71 23 -96 26 -220 26 -118 0 -150 -4 -205 -22 -45 -16 -106 -25 -197 -31
-100 -6 -143 -13 -180 -30 -26 -12 -100 -40 -163 -62 -63 -22 -155 -55 -204
-74 -49 -19 -125 -43 -169 -55 -44 -11 -106 -33 -138 -50 -32 -16 -93 -57
-136 -92 -43 -35 -98 -77 -123 -94 -25 -17 -75 -62 -111 -100 -36 -38 -73 -87
-83 -108 -11 -22 -25 -80 -31 -130 -7 -49 -16 -98 -20 -107 -4 -10 -21 -26
-38 -37 -18 -11 -48 -22 -67 -26 -28 -5 -47 0 -95 25 -33 17 -105 42 -160 55
-55 13 -120 26 -145 30 -25 4 -88 24 -140 45 -52 20 -115 44 -140 53 -25 9
-74 40 -109 68 -45 37 -70 67 -87 103 -14 30 -24 70 -24 97 0 25 7 68 15 97
11 36 27 60 54 84 22 18 62 42 90 52 28 10 63 27 77 39 15 11 69 84 119 161
51 78 109 170 128 206 20 36 48 95 62 133 14 37 25 85 25 106 0 23 -8 48 -20
64 -12 15 -38 31 -58 37 -20 5 -46 10 -57 9 -11 0 -35 -5 -53 -10z m2282 -720
c15 -12 26 -30 26 -45 0 -14 -7 -38 -15 -53 -8 -16 -33 -43 -56 -60 -23 -17
-73 -42 -110 -56 -59 -23 -77 -36 -136 -102 -50 -57 -83 -83 -128 -104 -33
-16 -66 -29 -74 -29 -7 0 -52 -17 -100 -39 -47 -21 -149 -57 -226 -80 -77 -22
-171 -48 -210 -56 -38 -8 -120 -19 -182 -26 -61 -6 -147 -10 -191 -8 -73 4
-84 7 -111 33 -26 25 -31 37 -31 77 0 36 6 55 25 77 15 18 56 43 103 62 42 18
102 45 132 60 30 15 87 37 127 49 55 17 88 35 140 77 37 31 80 62 95 70 14 7
64 24 110 37 45 14 120 27 166 31 46 4 102 14 124 23 23 9 91 31 152 49 96 28
127 33 227 33 103 1 119 -1 143 -20z"/>
<path d="M5710 6173 c-14 -2 -59 -15 -100 -28 -41 -13 -118 -40 -170 -60 -52
-20 -113 -47 -135 -60 -22 -13 -92 -67 -155 -120 -94 -79 -137 -108 -245 -160
-71 -35 -146 -79 -165 -97 -19 -19 -57 -59 -83 -91 -27 -31 -75 -75 -107 -97
-33 -22 -64 -49 -69 -59 -6 -10 -40 -55 -76 -100 -46 -59 -70 -99 -81 -139 -9
-32 -25 -74 -35 -94 -11 -21 -19 -53 -19 -73 0 -20 7 -49 15 -64 8 -16 37 -45
64 -65 27 -20 63 -41 80 -47 23 -8 43 -7 83 4 29 8 98 25 152 37 82 18 113 21
175 15 42 -5 91 -7 109 -7 18 1 50 11 70 21 20 10 61 35 89 54 29 20 78 45
108 56 31 12 69 21 85 21 16 0 40 -4 53 -9 13 -5 45 -28 71 -50 31 -27 57 -41
76 -41 21 0 43 15 86 59 l59 58 115 27 c63 14 132 26 153 26 21 0 66 -9 100
-21 34 -11 99 -43 144 -70 44 -27 101 -56 125 -65 26 -10 80 -16 138 -17 62
-1 106 3 128 12 18 8 39 26 47 42 8 15 15 46 15 68 0 32 -12 58 -66 138 -37
54 -85 118 -108 142 -22 23 -61 57 -86 75 -26 17 -79 56 -119 86 -41 30 -93
73 -116 95 -29 27 -47 55 -55 84 -7 28 -9 74 -5 130 4 51 3 110 -4 146 -6 33
-27 93 -46 132 -24 51 -44 78 -67 93 -27 16 -49 20 -118 19 -47 -1 -96 -4
-110 -6z m-157 -352 c66 -32 91 -50 104 -74 10 -20 18 -67 21 -123 4 -83 2
-97 -21 -148 -20 -42 -37 -63 -71 -85 -26 -16 -76 -36 -114 -45 -37 -10 -98
-28 -135 -42 -55 -19 -88 -24 -165 -24 -54 0 -123 -7 -155 -15 -31 -8 -80 -28
-109 -44 -29 -16 -71 -34 -94 -40 -30 -8 -50 -8 -74 0 -21 8 -37 22 -46 44
-10 24 -11 42 -3 69 5 20 32 62 58 94 27 31 64 71 82 88 19 17 70 56 114 86
44 30 119 73 165 96 76 36 90 47 134 107 34 46 62 74 90 87 27 12 56 17 86 15
27 -2 81 -21 133 -46z"/>
</g>
</svg>
