<svg xmlns="http://www.w3.org/2000/svg" xmlns:xlink="http://www.w3.org/1999/xlink" width="263.995" height="174.34" viewBox="0 0 197.996 130.755"><path stroke-width=".399" stroke-miterlimit="10" fill="none" stroke="#000" d="M64.517 41.685c-19.12 9.454-28.848 24.047-30.195 44.934"/><path stroke-width=".39898005000000003" stroke-linecap="round" stroke-linejoin="round" fill="none" stroke="#000" d="M36.828 84.903c-1.456.286-2.186 1.084-2.52 1.914-.223-.866-.845-1.751-2.252-2.221"/><symbol id="a"><path d="M.448.497c0 .105-.04.217-.138.217C.16.714 0 .446 0 .217 0 .098.046 0 .138 0c.152 0 .31.273.31.497M.113.375C.164.591.25.686.309.686c.064 0 .064-.111.064-.13A.794.794 0 0 0 .344.375H.113M.335.339A.717.717 0 0 0 .254.127C.223.075.183.028.139.028c-.055 0-.064.076-.064.13 0 .066.019.144.029.181h.231z"/></symbol><use xlink:href="#a" transform="matrix(6.9738 0 0 -6.9738 29.993 62.405)"/><path stroke-width=".399" stroke-miterlimit="10" fill="none" stroke="#000" d="M132.514 41.685c21.33 7.341 33.468 21.299 37.7 43.051"/><path stroke-width=".39899202" stroke-linecap="round" stroke-linejoin="round" fill="none" stroke="#000" d="M172.203 82.441c-1.336.646-1.84 1.603-1.951 2.491-.436-.781-1.262-1.48-2.743-1.577"/><symbol id="b"><path d="M.497.871.5.886C.5.898.487.898.484.898.469.898.469.894.464.876L.301.224C.219.234.175.269.175.336c0 .015 0 .043.05.167C.233.525.24.542.24.559.24.611.196.645.145.645.045.645 0 .508 0 .492 0 .479.014.479.017.479c.014 0 .015.005.018.016.024.082.068.122.107.122.017 0 .025-.011.025-.035C.167.559.159.54.148.51.098.384.098.361.098.343.098.228.219.2.294.196A7.602 7.602 0 0 1 .249.013C.249 0 .261 0 .265 0c.014 0 .016.005.02.021l.043.173c.039 0 .131 0 .236.105a.34.34 0 0 1 .072.107.552.552 0 0 1 .035.161c0 .078-.047.079-.05.079C.595.646.567.619.567.593c0-.017.01-.025.014-.028a.106.106 0 0 0 .04-.083c0-.084-.115-.26-.286-.26l.162.649z"/></symbol><use xlink:href="#b" transform="matrix(6.9738 0 0 -6.9738 167.3 61.02)"/><path stroke-width=".399" stroke-miterlimit="10" fill="none" stroke="#000" stroke-opacity=".4" d="M68.294 2.02h60.441v60.442h-60.44V2.02z"/><symbol id="c"><path d="M.252.314h.036l.15-.232C.448.066.472.027.483.012.49 0 .493 0 .516 0h.138c.018 0 .033 0 .033.018 0 .008-.006.015-.015.017C.635.043.586.109.562.141.555.151.505.217.438.325c.089.016.175.054.175.173 0 .139-.147.187-.265.187H.034C.016.685 0 .685 0 .667 0 .65.019.65.027.65.084.65.089.643.089.593V.092C.089.042.084.035.027.035.019.035 0 .035 0 .018 0 0 .016 0 .034 0h.274c.018 0 .033 0 .033.018 0 .017-.017.017-.028.017-.057 0-.061.008-.061.057v.222m.193.049C.473.4.476.453.476.497a.226.226 0 0 1-.038.142C.479.63.578.599.578.498.578.433.548.382.445.363M.252.596c0 .021 0 .054.062.054C.399.65.441.615.441.497.441.368.41.349.252.349v.247M.116.035A.154.154 0 0 1 .124.09v.505c0 .01 0 .037-.008.055H.23C.217.634.217.614.217.599V.09c0-.01 0-.037.008-.055H.116m.213.279.019.002C.363.316.385.318.4.32.415.296.523.118.606.035H.509l-.18.279z"/></symbol><use xlink:href="#c" transform="matrix(6.9738 0 0 -6.9738 69.84 9.786)"/><symbol id="d"><path d="M.557.667c.004.014.004.016.004.021C.561.705.546.705.53.704L.407.695C.39.694.388.693.383.689A.048.048 0 0 1 .376.666c0-.017.016-.017.03-.017.001 0 .019 0 .034-.002C.459.645.46.642.46.634.46.629.452.599.448.581L.401.393a.145.145 0 0 1-.12.06C.14.453 0 .316 0 .174 0 .072.075 0 .175 0c.082 0 .146.058.158.07C.351.021.406 0 .451 0c.04 0 .067.023.088.056.026.039.04.092.04.099 0 .014-.017.014-.021.014C.54.169.539.163.534.147.516.073.49.034.455.034c-.028 0-.04.022-.04.053 0 .011.001.022.004.032l.138.548M.339.144C.335.129.335.127.317.107.28.065.228.034.178.034.143.034.09.053.09.136c0 .046.024.151.059.203.039.055.09.08.132.08.045 0 .088-.027.104-.087L.339.144z"/></symbol><use xlink:href="#d" transform="matrix(4.9813 0 0 -4.9813 75.288 6.835)"/><path d="M109.964 35.074a2.005 2.005 0 1 0-4.01 0 2.005 2.005 0 0 0 4.01 0zm-2.005 0"/><symbol id="e"><path d="M.107.098c.026.026.044.045.129.113.021.017.096.077.125.105A.42.42 0 0 1 .46.439C.46.451.447.451.443.451.434.451.431.449.426.441.395.395.374.38.35.38.338.38.323.381.293.41.259.444.237.451.214.451.134.451.08.364.08.334.08.325.09.322.097.322c.012 0 .014.003.018.014.015.035.071.037.087.037.023 0 .049-.006.063-.009C.32.352.327.352.352.352A1.2 1.2 0 0 0 .213.231 1.182 1.182 0 0 1 .089.124.365.365 0 0 1 0 .012C0 0 .013 0 .017 0c.01 0 .012.002.017.01.027.038.058.061.092.061C.138.071.153.07.18.045.211.015.231 0 .263 0 .37 0 .437.121.437.155.437.167.426.168.42.168.408.168.406.163.402.152.383.102.324.078.275.078a.323.323 0 0 0-.073.011C.156.099.148.099.13.099L.107.098z"/></symbol><use xlink:href="#e" transform="matrix(6.9738 0 0 -6.9738 106.34 43.87)"/><path d="M36.3 94.572a2.005 2.005 0 1 0-4.009 0 2.005 2.005 0 0 0 4.01 0zm-2.004 0"/><symbol id="f"><path d="M.544.488C.544.662.436.71.356.71.309.71.199.694.103.555A.662.662 0 0 1 0 .222C0 .068.088 0 .189 0c.052 0 .152.021.242.14a.647.647 0 0 1 .113.348M.161.383c.019.069.036.132.07.19.023.038.07.091.123.091.034 0 .071-.025.071-.111C.425.499.412.447.397.383H.161M.383.327A.711.711 0 0 0 .312.136C.279.082.233.046.191.046.143.046.119.092.119.157c0 .051.016.121.028.17h.236z"/></symbol><use xlink:href="#f" transform="matrix(6.9738 0 0 -6.9738 19.901 105.582)"/><symbol id="g"><path d="M.698.22c.015 0 .038 0 .038.025 0 .024-.024.024-.037.024H.037C.024.269 0 .269 0 .245 0 .22.023.22.038.22h.66M.699 0c.013 0 .037 0 .037.024 0 .025-.023.025-.038.025h-.66C.023.049 0 .049 0 .024 0 0 .024 0 .037 0h.662z"/></symbol><use xlink:href="#g" transform="matrix(6.9738 0 0 -6.9738 26.878 104.717)"/><use xlink:href="#a" transform="matrix(6.9738 0 0 -6.9738 35.213 105.596)"/><symbol id="h"><path d="M.24.999A.6.6 0 0 1 0 .5.6.6 0 0 1 .24 0c.008 0 .02 0 .02.012C.26.018.257.02.25.027.117.147.068.317.068.499c0 .27.103.402.185.476C.257.979.26.982.26.987.26.999.248.999.24.999z"/></symbol><use xlink:href="#h" transform="matrix(6.9738 0 0 -6.9738 39.585 107.262)"/><use xlink:href="#e" transform="matrix(6.9738 0 0 -6.9738 42.321 105.596)"/><symbol id="i"><path d="M.019.999C.012.999 0 .999 0 .987 0 .982.003.979.009.972.095.893.191.758.191.5.191.291.126.133.018.035.001.018 0 .017 0 .012 0 .007.003 0 .013 0 .025 0 .12.066.186.191a.667.667 0 0 1 .073.308.6.6 0 0 1-.24.5z"/></symbol><use xlink:href="#i" transform="matrix(6.9738 0 0 -6.9738 46.483 107.262)"/><path d="M157.184 88.905a2.005 2.005 0 1 0-4.01 0 2.005 2.005 0 0 0 4.01 0zm-2.005 0"/><symbol id="j"><path d="M.579.861a.074.074 0 0 1 .004.017c0 .018-.018.018-.032.018C.524.896.524.893.518.871L.361.243C.279.252.236.284.236.345c0 .03.015.075.051.162.011.027.016.039.016.055 0 .06-.065.092-.129.092C.06.654 0 .527 0 .498 0 .48.017.48.032.48c.025 0 .027.002.033.022.017.057.06.106.103.106.006 0 .017 0 .017-.024A.153.153 0 0 0 .166.52C.114.393.114.367.114.351c0-.132.167-.152.235-.155L.315.062.305.018C.305 0 .322 0 .336 0c.016 0 .027 0 .031.012.001.003.027.105.045.182.164 0 .301.118.343.226.011.03.027.096.027.135 0 .084-.056.1-.077.1-.039 0-.08-.041-.08-.081 0-.032.021-.043.032-.05C.687.508.704.492.704.47.704.41.593.246.424.24l.155.621z"/></symbol><use xlink:href="#j" transform="matrix(6.9738 0 0 -6.9738 139.099 101.268)"/><use xlink:href="#g" transform="matrix(6.9738 0 0 -6.9738 147.832 99.05)"/><use xlink:href="#b" transform="matrix(6.9738 0 0 -6.9738 156.056 101.282)"/><use xlink:href="#h" transform="matrix(6.9738 0 0 -6.9738 162.052 101.595)"/><use xlink:href="#e" transform="matrix(6.9738 0 0 -6.9738 164.788 99.929)"/><use xlink:href="#i" transform="matrix(6.9738 0 0 -6.9738 168.95 101.595)"/><path stroke-width=".399" stroke-miterlimit="10" fill="none" stroke="#000" stroke-opacity=".4" d="M90.96 17.13h33.999v34H90.96z"/><symbol id="k"><path d="M.443.605C.45.634.452.637.474.639l.06.001C.595.64.621.64.646.632.691.618.693.589.693.553c0-.016 0-.029-.007-.081L.684.461c0-.01.007-.015.017-.015.015 0 .017.009.019.025l.027.191c0 .014-.012.014-.03.014H.102c-.025 0-.027 0-.034-.021L.005.478C.004.474 0 .465 0 .46 0 .456.002.446.017.446.03.446.032.451.038.47c.058.16.091.17.243.17h.042C.353.64.354.639.354.63c0-.001 0-.006-.004-.021L.218.083C.209.046.206.036.101.036c-.036 0-.045 0-.045-.022C.056.011.058 0 .073 0l.086.003.086.001.09-.001L.419 0c.008 0 .023 0 .023.022 0 .014-.01.014-.041.014L.343.038C.309.041.307.045.307.057c0 .007 0 .009.004.023l.132.525z"/></symbol><use xlink:href="#k" transform="matrix(6.9738 0 0 -6.9738 91.685 25.531)"/><symbol id="l"><path d="M.124.102a1.5 1.5 0 0 0 .148.115c.067.048.11.081.152.121.05.047.084.091.084.101 0 .014-.015.014-.021.014C.473.453.472.452.464.441.426.388.403.384.386.384.37.384.355.387.324.41.29.436.268.453.23.453.139.453.08.365.08.334.08.319.094.319.101.319c.011 0 .016.002.021.012.004.012.014.036.094.036A.622.622 0 0 0 .317.356C.354.35.366.35.383.35A1.455 1.455 0 0 0 .248.244 1.316 1.316 0 0 1 .087.118.353.353 0 0 1 0 .014C0 0 .015 0 .021 0c.012 0 .015.001.021.009.029.04.065.06.1.06C.17.069.184.059.22.031A.126.126 0 0 1 .3 0c.117 0 .194.119.194.159 0 .014-.017.014-.021.014C.457.173.455.169.451.157.428.097.349.086.311.086a.468.468 0 0 0-.076.008C.179.103.163.103.149.103L.124.102z"/></symbol><use xlink:href="#l" transform="matrix(4.9813 0 0 -4.9813 96.613 26.583)"/><use xlink:href="#c" transform="matrix(6.9738 0 0 -6.9738 100.315 25.531)"/><use xlink:href="#d" transform="matrix(4.9813 0 0 -4.9813 105.763 22.58)"/><path stroke-width=".797" stroke-miterlimit="10" fill="none" stroke="#000" d="m107.96 35.074 7.305-4.261"/><path d="M119.292 28.463c-1.324.473-3.654.933-5.453.933l1.957 3.356c.886-1.567 2.433-3.369 3.496-4.289"/><symbol id="m"><path d="M.487.373c0 .078-.047.079-.05.079C.411.452.383.425.383.399.383.382.393.374.4.368a.102.102 0 0 0 .037-.08c0-.045-.066-.26-.185-.26C.171.028.171.1.171.117c0 .046.018.102.055.195C.234.333.24.348.24.365.24.417.196.451.145.451.045.451 0 .314 0 .298 0 .285.014.285.017.285c.014 0 .015.005.018.016.024.082.067.122.107.122.017 0 .025-.011.025-.035A.168.168 0 0 0 .149.321a.565.565 0 0 1-.054-.19C.095.032.173 0 .249 0c.168 0 .238.291.238.373z"/></symbol><use xlink:href="#m" transform="matrix(6.9738 0 0 -6.9738 117.503 26.764)"/><path stroke-width=".797" stroke-miterlimit="10" fill="none" stroke="#000" d="m107.96 35.074 7.305 4.262"/><path d="M119.292 41.685c-1.063-.92-2.61-2.722-3.495-4.288l-1.958 3.356c1.799 0 4.13.46 5.453.932"/><symbol id="n"><path d="M.479.329c.007.027.019.075.019.08 0 .02-.016.032-.033.032A.046.046 0 0 1 .422.412L.402.337.373.222C.36.167.358.159.357.13.361.11.353.091.329.061A.082.082 0 0 0 .262.028c-.039 0-.09.014-.09.092C.172.171.2.245.22.296c.017.044.021.053.021.07C.241.414.2.451.146.451.045.451 0 .315 0 .298 0 .285.014.285.017.285c.014 0 .015.005.018.016.025.083.068.122.108.122C.16.423.168.412.168.388.168.365.159.343.154.33.097.184.097.164.097.133.097.015.204 0 .258 0c.019 0 .068 0 .113.067C.394.022.449 0 .51 0c.089 0 .133.077.153.118.043.084.07.209.07.255 0 .075-.043.079-.05.079C.657.452.629.425.629.399c0-.017.01-.025.017-.031a.102.102 0 0 0 .037-.08c0-.013-.042-.26-.169-.26C.433.028.433.1.433.117c0 .027.004.043.018.1l.028.112z"/></symbol><use xlink:href="#n" transform="matrix(6.9738 0 0 -6.9738 116.645 46.526)"/><symbol id="o"><path d="M.24.955c.006.014.006.016.006.019a.025.025 0 0 1-.024.025C.205.999.201.988.195.974L.006.519C0 .505 0 .503 0 .5 0 .495 0 .494.006.48L.194.026C.2.011.206 0 .222 0c.011 0 .024.009.024.025 0 .003 0 .005-.006.019L.051.499.24.955z"/></symbol><use xlink:href="#o" transform="matrix(6.9738 0 0 -6.9738 130.34 36.338)"/><symbol id="p"><path d="M.099.209A.231.231 0 0 0 .021.026C.017.022.014.019.014.014.014.007.022 0 .028 0c.014 0 .099.08.099.199 0 .062-.024.109-.07.109A.056.056 0 0 1 0 .251C0 .219.023.193.058.193c.024 0 .04.016.041.016z"/></symbol><use xlink:href="#m" transform="matrix(6.9738 0 0 -6.9738 132.93 34.672)"/><use xlink:href="#p" transform="matrix(6.9738 0 0 -6.9738 137.616 35.948)"/><use xlink:href="#n" transform="matrix(6.9738 0 0 -6.9738 140.887 34.672)"/><symbol id="q"><path d="M.24.48c.006.014.006.016.006.019 0 .005 0 .006-.006.02L.052.973C.046.988.04.999.024.999A.025.025 0 0 1 0 .974C0 .971 0 .969.006.955L.195.5.006.044C0 .03 0 .028 0 .025 0 .009.013 0 .024 0c.017 0 .021.011.027.025L.24.48z"/></symbol><use xlink:href="#q" transform="matrix(6.9738 0 0 -6.9738 147.053 36.338)"/><use xlink:href="#g" transform="matrix(6.9738 0 0 -6.9738 152.495 33.793)"/><symbol id="r"><path d="M.569.361c0 .085-.057.1-.077.1C.453.461.412.42.412.38c0-.032.021-.043.034-.05C.477.312.491.296.491.276c0-.027-.063-.23-.176-.23-.082 0-.083.057-.083.079 0 .049.022.108.057.192.009.023.014.035.014.051C.303.428.238.46.174.46.06.46 0 .333 0 .304 0 .286.017.286.032.286c.025 0 .027.002.033.022.017.057.06.106.103.106.006 0 .017 0 .017-.024C.185.371.177.353.17.334A.54.54 0 0 1 .112.142C.112.021.224 0 .307 0c.174 0 .262.252.262.361z"/></symbol><use xlink:href="#r" transform="matrix(6.9738 0 0 -6.9738 160.698 34.658)"/><symbol id="s"><path d="M.445.638h.346c.016 0 .043 0 .043.028S.807.694.791.694H.043C.028.694 0 .694 0 .666S.028.638.043.638h.346V.043C.389.028.389 0 .417 0s.028.027.028.043v.595z"/></symbol><use xlink:href="#s" transform="matrix(4.9813 0 0 -4.9813 165.812 31.595)"/><symbol id="t"><path d="M.755.217C.759.231.76.232.767.234l.041.001c.029 0 .031 0 .035.004a.037.037 0 0 1 .013.03.022.022 0 0 1-.023.022L.766.288.693.287.592.288.491.291C.48.291.458.291.458.257c0-.022.02-.022.037-.022h.047A.838.838 0 0 0 .594.233C.608.232.609.231.609.229A.273.273 0 0 0 .602.2L.583.124C.554.065.465.056.408.056A.351.351 0 0 0 .224.1C.162.142.153.199.153.247c0 .052.023.221.127.317.09.084.207.098.274.098.13 0 .19-.087.19-.178L.742.457c0-.02.014-.02.036-.02.029 0 .032 0 .038.025l.055.221A.074.074 0 0 1 .875.7c0 .018-.017.018-.033.018L.745.647a.307.307 0 0 1-.209.071C.187.718 0 .482 0 .28 0 .106.132 0 .373 0c.056 0 .176.002.241.057A.266.266 0 0 1 .691.016c.013 0 .015.01.019.024l.045.177z"/></symbol><symbol id="u"><path d="M.416.112C.38.046.339.046.325.046c-.092 0-.092.06-.092.082a.5.5 0 0 0 .055.188c.01.024.015.036.015.052C.303.428.238.46.174.46.06.46 0 .333 0 .304 0 .286.017.286.032.286c.025 0 .027.002.033.022.017.057.06.106.103.106.006 0 .017 0 .017-.024A.153.153 0 0 0 .166.326.524.524 0 0 1 .112.144C.112.008.259 0 .317 0 .334 0 .392 0 .44.058.482.008.555 0 .608 0c.195 0 .245.312.245.361 0 .084-.056.1-.077.1C.737.461.696.42.696.38c0-.032.021-.043.032-.05C.758.314.775.298.775.276A.546.546 0 0 0 .722.123C.678.046.633.046.616.046.533.046.533.104.533.125c0 .025.006.048.012.072L.563.27l.016.062c.005.024.015.062.015.07 0 .035-.027.05-.052.05A.075.075 0 0 1 .47.395L.429.232a.321.321 0 0 1-.016-.09c0-.007 0-.017.003-.03z"/></symbol><use xlink:href="#t" transform="matrix(6.9738 0 0 -6.9738 171.558 34.714)"/><use xlink:href="#u" transform="matrix(6.9738 0 0 -6.9738 178.281 34.658)"/><path stroke-width=".399" stroke-miterlimit="10" fill="none" stroke="#000" d="M119.292 35.074c6.837-7.358 14.764-9.797 24.555-7.555"/><path stroke-width=".598" stroke-miterlimit="10" fill="none" stroke="#0072bc" d="M.298 122.903h48.761"/><path d="M53.184 122.903c-1.222-.23-3.208-.917-4.583-1.719v3.437c1.375-.802 3.36-1.49 4.583-1.718" fill="#0072bc"/><symbol id="v"><path d="M.736.358c0 .2-.164.365-.368.365A.366.366 0 0 1 0 .358C0 .162.163 0 .368 0s.368.162.368.358M.368.03C.247.03.1.124.1.359c0 .235.144.336.268.336.124 0 .268-.101.268-.336C.636.123.488.03.368.03m.205.408H.539V.404H.197v.034H.163v-.15h.034v.034h.342V.288h.034v.15z"/></symbol><use xlink:href="#v" transform="matrix(6.9738 0 0 -6.9738 40.623 115.307)" fill="#0072bc"/><symbol id="w"><path d="M.738.228c0 .038-.014.039-.017.039C.706.267.704.239.704.226.7.153.646.069.553.069.482.069.431.116.376.166.323.214.263.268.185.268.071.268 0 .151 0 .04 0 .002.014.001.017.001c.015 0 .016.026.017.041.004.073.057.157.151.157.071 0 .122-.047.177-.097C.415.054.475 0 .553 0c.114 0 .185.117.185.228z"/></symbol><use xlink:href="#w" transform="matrix(6.9738 0 0 -6.9738 49.056 112.677)" fill="#0072bc"/><use xlink:href="#g" transform="matrix(6.9738 0 0 -6.9738 49.062 114.857)" fill="#0072bc"/><use xlink:href="#c" transform="matrix(6.9738 0 0 -6.9738 57.125 115.168)" fill="#0072bc"/><use xlink:href="#d" transform="matrix(4.9813 0 0 -4.9813 62.573 112.217)" fill="#0072bc"/><path stroke-width=".598" stroke-miterlimit="10" fill="none" stroke="#0072bc" d="M7.853 130.458V81.696"/><path d="M7.853 77.572c-.229 1.222-.916 3.208-1.718 4.583h3.437c-.802-1.375-1.49-3.361-1.719-4.583" fill="#0072bc"/><path stroke-width=".399" stroke-miterlimit="10" fill="none" stroke="#000" d="M62.628 99.294h65.71"/><path stroke-width=".399" stroke-linecap="round" stroke-linejoin="round" fill="none" stroke="#000" d="M126.465 96.903c.378 1.434 1.222 2.112 2.072 2.39-.85.28-1.694.957-2.072 2.392"/><symbol id="x"><path d="M.247.207.281.206c.18 0 .345.147.345.305C.626.6.573.657.495.657.357.657.284.481.256.406L.215.28c-.11.015-.18.065-.18.139 0 .001.006.113.087.203C.129.629.13.631.13.635.13.647.117.647.114.647c-.009 0-.013 0-.032-.022A.413.413 0 0 1 0 .409C0 .32.065.243.194.215A1.524 1.524 0 0 1 .138.032C.138.005.161 0 .172 0c.011 0 .031.007.039.022.007.015.016.066.036.185M.26.275C.28.39.288.435.336.5c.045.061.098.089.148.089C.553.589.59.543.59.491.59.39.464.274.292.274L.26.275z"/></symbol><use xlink:href="#x" transform="matrix(6.9738 0 0 -6.9738 93.543 95.923)"/><path stroke-width=".598" stroke-miterlimit="10" fill="none" stroke="#f26135" d="M128.735 122.903h48.762"/><path d="M181.621 122.903c-1.222-.23-3.208-.917-4.582-1.719v3.437c1.374-.802 3.36-1.49 4.582-1.718" fill="#f26135"/><symbol id="y"><path d="M.409.601c0 .033 0 .046.094.046h.035v.036a4.47 4.47 0 0 0-.346 0V.647h.035C.321.647.321.634.321.601V.17C.172.203.167.35.167.418.167.43.166.552.066.552H.029C.014.552 0 .552 0 .538 0 .526.012.524.015.524.078.517.079.426.079.419.079.377.08.291.144.22A.272.272 0 0 1 .321.14V.082c0-.033 0-.046-.094-.046H.192V0l.173.004C.424.004.528.001.538 0v.036H.503C.409.036.409.049.409.082V.14c.114.012.159.057.183.082a.28.28 0 0 1 .065.172c0 .034.001.064.016.096.015.029.033.032.051.035.007 0 .012.006.012.013 0 .014-.013.014-.028.014H.67C.58.552.569.461.569.397.568.321.541.193.409.17v.431z"/></symbol><use xlink:href="#y" transform="matrix(6.9738 0 0 -6.9738 169.066 115.168)" fill="#f26135"/><use xlink:href="#w" transform="matrix(6.9738 0 0 -6.9738 177.498 112.677)" fill="#f26135"/><use xlink:href="#g" transform="matrix(6.9738 0 0 -6.9738 177.505 114.857)" fill="#f26135"/><use xlink:href="#c" transform="matrix(6.9738 0 0 -6.9738 185.568 115.168)" fill="#f26135"/><use xlink:href="#d" transform="matrix(4.9813 0 0 -4.9813 191.015 112.217)" fill="#f26135"/><path stroke-width=".598" stroke-miterlimit="10" fill="none" stroke="#f26135" d="M136.29 130.458V81.696"/><path d="M136.29 77.572c-.229 1.222-.916 3.208-1.718 4.583h3.437c-.802-1.375-1.49-3.361-1.718-4.583" fill="#f26135"/></svg>